<?xml version="1.0" encoding="UTF-8"?>
<svg xmlns="http://www.w3.org/2000/svg" xmlns:xlink="http://www.w3.org/1999/xlink" width="90px" height="88px" viewBox="0 0 90 88" version="1.1">
<g id="surface1">
<path style=" stroke:none;fill-rule:nonzero;fill:rgb(20%,0%,0%);fill-opacity:1;" d="M 15.9375 0 L 74.0625 0 C 82.863281 0 90 7.15625 90 15.984375 L 90 72.015625 C 90 80.84375 82.863281 88 74.0625 88 L 15.9375 88 C 7.136719 88 0 80.84375 0 72.015625 L 0 15.984375 C 0 7.15625 7.136719 0 15.9375 0 Z M 15.9375 0 "/>
<path style=" stroke:none;fill-rule:nonzero;fill:rgb(100%,60.392159%,0%);fill-opacity:1;" d="M 43.613281 52.8125 L 29.667969 52.8125 L 26.828125 61.652344 C 26.75 61.984375 26.445312 62.210938 26.105469 62.195312 L 19.039062 62.195312 C 18.636719 62.195312 18.496094 61.972656 18.617188 61.53125 L 30.691406 26.65625 C 30.8125 26.292969 30.933594 25.878906 31.054688 25.414062 C 31.210938 24.605469 31.292969 23.785156 31.296875 22.960938 C 31.28125 22.84375 31.320312 22.726562 31.402344 22.644531 C 31.484375 22.558594 31.601562 22.519531 31.71875 22.535156 L 41.316406 22.535156 C 41.597656 22.535156 41.761719 22.636719 41.800781 22.839844 L 55.507812 61.589844 C 55.628906 61.992188 55.507812 62.195312 55.144531 62.195312 L 47.296875 62.195312 C 47.015625 62.226562 46.757812 62.046875 46.691406 61.773438 Z M 31.839844 45.183594 L 41.378906 45.183594 C 41.136719 44.375 40.855469 43.464844 40.535156 42.457031 C 40.210938 41.449219 39.867188 40.367188 39.507812 39.21875 C 39.144531 38.066406 38.78125 36.917969 38.421875 35.765625 C 38.058594 34.617188 37.726562 33.507812 37.425781 32.4375 C 37.121094 31.367188 36.851562 30.390625 36.609375 29.5 L 36.546875 29.5 C 36.207031 31.136719 35.785156 32.753906 35.28125 34.34375 C 34.71875 36.160156 34.144531 38.015625 33.558594 39.914062 C 32.976562 41.8125 32.402344 43.566406 31.839844 45.183594 Z M 31.839844 45.183594 "/>
<path style=" stroke:none;fill-rule:nonzero;fill:rgb(100%,60.392159%,0%);fill-opacity:1;" d="M 63.65625 28.957031 C 62.410156 29.003906 61.203125 28.519531 60.335938 27.625 C 59.472656 26.6875 59.015625 25.445312 59.066406 24.171875 C 59.023438 22.910156 59.515625 21.6875 60.425781 20.8125 C 61.324219 19.945312 62.53125 19.476562 63.777344 19.511719 C 65.226562 19.511719 66.363281 19.945312 67.1875 20.8125 C 68.03125 21.722656 68.476562 22.929688 68.425781 24.171875 C 68.476562 25.449219 68.007812 26.695312 67.128906 27.625 C 66.207031 28.535156 64.949219 29.015625 63.65625 28.957031 Z M 59.492188 61.589844 L 59.492188 32.648438 C 59.492188 32.285156 59.652344 32.105469 59.972656 32.105469 L 67.398438 32.105469 C 67.722656 32.105469 67.882812 32.285156 67.882812 32.648438 L 67.882812 61.589844 C 67.882812 61.992188 67.722656 62.195312 67.398438 62.195312 L 60.035156 62.195312 C 59.671875 62.195312 59.492188 61.992188 59.492188 61.589844 Z M 59.492188 61.589844 "/>
</g>
</svg>
